<svg width="10" height="18" viewBox="0 0 10 18" fill="none" xmlns="http://www.w3.org/2000/svg">
<path d="M9.49918 0.0037452L7.16501 0C4.54265 0 2.84796 1.73871 2.84796 4.42982V6.47227H0.501059C0.298259 6.47227 0.134033 6.63668 0.134033 6.83949V9.79876C0.134033 10.0016 0.298446 10.1658 0.501059 10.1658H2.84796V17.633C2.84796 17.8358 3.01219 18 3.21499 18H6.27703C6.47984 18 6.64406 17.8356 6.64406 17.633V10.1658H9.38814C9.59094 10.1658 9.75517 10.0016 9.75517 9.79876L9.75629 6.83949C9.75629 6.74211 9.71753 6.64886 9.6488 6.57994C9.58008 6.51103 9.48645 6.47227 9.38908 6.47227H6.64406V4.74086C6.64406 3.90868 6.84237 3.48622 7.9264 3.48622L9.49881 3.48566C9.70142 3.48566 9.86565 3.32124 9.86565 3.11863V0.370775C9.86565 0.168347 9.70161 0.00411972 9.49918 0.0037452Z" fill="#3B5998"/>
</svg>
